<svg xmlns="http://www.w3.org/2000/svg" xmlns:xlink="http://www.w3.org/1999/xlink" width="500" zoomAndPan="magnify" viewBox="0 0 375 374.999991" height="500" preserveAspectRatio="xMidYMid meet" version="1.0"><defs><g/><clipPath id="4ab1fa0eea"><path d="M 75.980469 172.484375 L 120 172.484375 L 120 213.734375 L 75.980469 213.734375 Z M 75.980469 172.484375 " clip-rule="nonzero"/></clipPath></defs><g fill="#204064" fill-opacity="1"><g transform="translate(29.531152, 210.749986)"><g><path d="M 51 -45.765625 L 31.390625 0 L 18.640625 0 L -0.921875 -45.765625 L 13.078125 -45.765625 L 25.5 -15.953125 L 38.1875 -45.765625 Z M 51 -45.765625 "/></g></g></g><g fill="#204064" fill-opacity="1"><g transform="translate(75.562399, 210.749986)"><g/></g></g><g fill="#204064" fill-opacity="1"><g transform="translate(90.533374, 210.749986)"><g/></g></g><g fill="#204064" fill-opacity="1"><g transform="translate(105.50435, 210.749986)"><g/></g></g><g fill="#204064" fill-opacity="1"><g transform="translate(120.480365, 210.749986)"><g><path d="M 3.984375 -35.4375 L 16.40625 -35.4375 L 16.40625 0 L 3.984375 0 Z M 10.203125 -39.359375 C 7.929688 -39.359375 6.097656 -39.988281 4.703125 -41.25 C 3.304688 -42.519531 2.609375 -44.09375 2.609375 -45.96875 C 2.609375 -47.84375 3.304688 -49.410156 4.703125 -50.671875 C 6.097656 -51.941406 7.929688 -52.578125 10.203125 -52.578125 C 12.460938 -52.578125 14.289062 -51.976562 15.6875 -50.78125 C 17.082031 -49.582031 17.78125 -48.046875 17.78125 -46.171875 C 17.78125 -44.203125 17.082031 -42.570312 15.6875 -41.28125 C 14.289062 -40 12.460938 -39.359375 10.203125 -39.359375 Z M 10.203125 -39.359375 "/></g></g></g><g fill="#204064" fill-opacity="1"><g transform="translate(136.889679, 210.749986)"><g><path d="M 22.109375 0.59375 C 18.179688 0.59375 14.671875 -0.191406 11.578125 -1.765625 C 8.484375 -3.335938 6.070312 -5.515625 4.34375 -8.296875 C 2.625 -11.085938 1.765625 -14.25 1.765625 -17.78125 C 1.765625 -21.3125 2.625 -24.460938 4.34375 -27.234375 C 6.070312 -30.003906 8.484375 -32.160156 11.578125 -33.703125 C 14.671875 -35.253906 18.179688 -36.03125 22.109375 -36.03125 C 26.117188 -36.03125 29.582031 -35.164062 32.5 -33.4375 C 35.414062 -31.71875 37.488281 -29.332031 38.71875 -26.28125 L 29.09375 -21.375 C 27.476562 -24.5625 25.125 -26.15625 22.03125 -26.15625 C 19.8125 -26.15625 17.972656 -25.410156 16.515625 -23.921875 C 15.054688 -22.441406 14.328125 -20.394531 14.328125 -17.78125 C 14.328125 -15.125 15.054688 -13.039062 16.515625 -11.53125 C 17.972656 -10.03125 19.8125 -9.28125 22.03125 -9.28125 C 25.125 -9.28125 27.476562 -10.875 29.09375 -14.0625 L 38.71875 -9.15625 C 37.488281 -6.101562 35.414062 -3.710938 32.5 -1.984375 C 29.582031 -0.265625 26.117188 0.59375 22.109375 0.59375 Z M 22.109375 0.59375 "/></g></g></g><g fill="#204064" fill-opacity="1"><g transform="translate(172.258855, 210.749986)"><g><path d="M 40.21875 -17.65625 C 40.21875 -17.570312 40.148438 -16.546875 40.015625 -14.578125 L 14.25 -14.578125 C 14.78125 -12.742188 15.796875 -11.335938 17.296875 -10.359375 C 18.796875 -9.378906 20.679688 -8.890625 22.953125 -8.890625 C 24.648438 -8.890625 26.117188 -9.128906 27.359375 -9.609375 C 28.609375 -10.085938 29.863281 -10.875 31.125 -11.96875 L 37.671875 -5.171875 C 34.222656 -1.328125 29.1875 0.59375 22.5625 0.59375 C 18.414062 0.59375 14.773438 -0.191406 11.640625 -1.765625 C 8.503906 -3.335938 6.070312 -5.515625 4.34375 -8.296875 C 2.625 -11.085938 1.765625 -14.25 1.765625 -17.78125 C 1.765625 -21.269531 2.601562 -24.398438 4.28125 -27.171875 C 5.957031 -29.941406 8.273438 -32.109375 11.234375 -33.671875 C 14.203125 -35.242188 17.539062 -36.03125 21.25 -36.03125 C 24.78125 -36.03125 27.984375 -35.300781 30.859375 -33.84375 C 33.742188 -32.382812 36.023438 -30.269531 37.703125 -27.5 C 39.378906 -24.726562 40.21875 -21.445312 40.21875 -17.65625 Z M 21.3125 -27.203125 C 19.394531 -27.203125 17.789062 -26.65625 16.5 -25.5625 C 15.21875 -24.476562 14.40625 -23 14.0625 -21.125 L 28.578125 -21.125 C 28.222656 -23 27.398438 -24.476562 26.109375 -25.5625 C 24.828125 -26.65625 23.226562 -27.203125 21.3125 -27.203125 Z M 21.3125 -27.203125 "/></g></g></g><g fill="#204064" fill-opacity="1"><g transform="translate(210.177809, 210.749986)"><g><path d="M 48.125 -45.765625 L 48.125 0 L 35.1875 0 L 35.1875 -17.859375 L 17.53125 -17.859375 L 17.53125 0 L 4.578125 0 L 4.578125 -45.765625 L 17.53125 -45.765625 L 17.53125 -28.578125 L 35.1875 -28.578125 L 35.1875 -45.765625 Z M 48.125 -45.765625 "/></g></g></g><g fill="#204064" fill-opacity="1"><g transform="translate(258.818893, 210.749986)"><g><path d="M 41.265625 -35.4375 L 41.265625 0 L 29.421875 0 L 29.421875 -3.796875 C 28.117188 -2.359375 26.550781 -1.265625 24.71875 -0.515625 C 22.882812 0.222656 20.941406 0.59375 18.890625 0.59375 C 14.316406 0.59375 10.664062 -0.753906 7.9375 -3.453125 C 5.21875 -6.160156 3.859375 -10.21875 3.859375 -15.625 L 3.859375 -35.4375 L 16.28125 -35.4375 L 16.28125 -17.65625 C 16.28125 -15 16.78125 -13.054688 17.78125 -11.828125 C 18.789062 -10.609375 20.253906 -10 22.171875 -10 C 24.128906 -10 25.726562 -10.6875 26.96875 -12.0625 C 28.21875 -13.4375 28.84375 -15.539062 28.84375 -18.375 L 28.84375 -35.4375 Z M 41.265625 -35.4375 "/></g></g></g><g fill="#204064" fill-opacity="1"><g transform="translate(300.006783, 210.749986)"><g><path d="M 26.28125 -36.03125 C 29.507812 -36.03125 32.441406 -35.285156 35.078125 -33.796875 C 37.710938 -32.316406 39.804688 -30.191406 41.359375 -27.421875 C 42.910156 -24.660156 43.6875 -21.445312 43.6875 -17.78125 C 43.6875 -14.125 42.910156 -10.898438 41.359375 -8.109375 C 39.804688 -5.316406 37.710938 -3.164062 35.078125 -1.65625 C 32.441406 -0.15625 29.507812 0.59375 26.28125 0.59375 C 21.625 0.59375 18.140625 -0.78125 15.828125 -3.53125 L 15.828125 0 L 3.984375 0 L 3.984375 -48.515625 L 16.40625 -48.515625 L 16.40625 -32.375 C 18.8125 -34.8125 22.101562 -36.03125 26.28125 -36.03125 Z M 23.671875 -9.28125 C 25.847656 -9.28125 27.632812 -10.03125 29.03125 -11.53125 C 30.425781 -13.039062 31.125 -15.125 31.125 -17.78125 C 31.125 -20.394531 30.425781 -22.441406 29.03125 -23.921875 C 27.632812 -25.410156 25.847656 -26.15625 23.671875 -26.15625 C 21.492188 -26.15625 19.707031 -25.410156 18.3125 -23.921875 C 16.914062 -22.441406 16.21875 -20.394531 16.21875 -17.78125 C 16.21875 -15.125 16.914062 -13.039062 18.3125 -11.53125 C 19.707031 -10.03125 21.492188 -9.28125 23.671875 -9.28125 Z M 23.671875 -9.28125 "/></g></g></g><g clip-path="url(#4ab1fa0eea)"><path fill="#204064" d="M 95.101562 176.808594 C 96.144531 176.808594 96.996094 177.660156 96.996094 178.710938 L 96.996094 207.253906 C 96.976562 208.316406 96.175781 209.136719 95.101562 209.152344 C 94.054688 209.152344 93.199219 208.300781 93.199219 207.253906 L 93.199219 178.710938 C 93.199219 177.660156 94.054688 176.808594 95.101562 176.808594 Z M 89.355469 183.976562 C 90.40625 183.976562 91.257812 184.828125 91.257812 185.875 L 91.257812 200.089844 C 91.257812 201.136719 90.40625 201.988281 89.355469 201.988281 C 88.3125 201.988281 87.464844 201.136719 87.464844 200.089844 L 87.464844 185.875 C 87.464844 184.828125 88.3125 183.976562 89.355469 183.976562 Z M 106.574219 198.976562 C 105.527344 198.976562 104.675781 198.125 104.675781 197.078125 L 104.675781 188.886719 C 104.675781 187.839844 105.527344 186.988281 106.574219 186.988281 C 107.621094 186.988281 108.46875 187.839844 108.46875 188.886719 L 108.46875 197.078125 C 108.46875 198.125 107.621094 198.976562 106.574219 198.976562 Z M 100.839844 172.488281 C 99.789062 172.488281 98.9375 173.339844 98.9375 174.386719 L 98.9375 211.578125 C 98.9375 212.625 99.789062 213.476562 100.839844 213.476562 C 101.882812 213.476562 102.734375 212.625 102.734375 211.578125 L 102.734375 174.386719 C 102.734375 173.339844 101.882812 172.488281 100.839844 172.488281 Z M 112.304688 180.550781 C 113.355469 180.550781 114.207031 181.402344 114.207031 182.449219 L 114.207031 203.515625 C 114.207031 204.5625 113.355469 205.414062 112.304688 205.414062 C 111.261719 205.414062 110.410156 204.5625 110.410156 203.515625 L 110.410156 182.449219 C 110.410156 181.402344 111.261719 180.550781 112.304688 180.550781 Z M 77.875 189.84375 C 78.921875 189.84375 79.777344 190.695312 79.777344 191.742188 L 79.777344 194.222656 C 79.777344 195.269531 78.921875 196.121094 77.875 196.121094 C 76.828125 196.121094 75.980469 195.269531 75.980469 194.222656 L 75.980469 191.742188 C 75.980469 190.695312 76.828125 189.84375 77.875 189.84375 Z M 118.054688 189.179688 C 119.097656 189.179688 119.949219 190.03125 119.949219 191.078125 L 119.949219 194.886719 C 119.949219 195.933594 119.097656 196.785156 118.054688 196.785156 C 117.007812 196.785156 116.152344 195.933594 116.152344 194.886719 L 116.152344 191.078125 C 116.152344 190.03125 117.007812 189.179688 118.054688 189.179688 Z M 83.621094 180.058594 C 84.667969 180.058594 85.519531 180.910156 85.519531 181.957031 L 85.519531 204.007812 C 85.519531 205.054688 84.667969 205.90625 83.621094 205.90625 C 82.570312 205.90625 81.71875 205.054688 81.71875 204.007812 L 81.71875 181.957031 C 81.71875 180.910156 82.570312 180.058594 83.621094 180.058594 Z M 83.621094 180.058594 " fill-opacity="1" fill-rule="nonzero"/></g></svg>