<svg xmlns="http://www.w3.org/2000/svg" xmlns:xlink="http://www.w3.org/1999/xlink" width="100" zoomAndPan="magnify" viewBox="0 0 75 30.000001" height="40" preserveAspectRatio="xMidYMid meet" version="1.0">
    <defs>
        <clipPath id="f5e2a85927">
            <path d="M 1.210938 0 L 73.789062 0 L 73.789062 29.03125 L 1.210938 29.03125 Z M 1.210938 0 " clip-rule="nonzero"/>
        </clipPath>
        <clipPath id="59cdee0b60">
            <path d="M 1.210938 8 L 14 8 L 14 19 L 1.210938 19 Z M 1.210938 8 " clip-rule="nonzero"/>
        </clipPath>
        <clipPath id="36aa2e4fb0">
            <path d="M 12.292969 10.242188 L 22.25 10.242188 L 22.25 19.578125 L 12.292969 19.578125 Z M 12.292969 10.242188 " clip-rule="nonzero"/>
        </clipPath>
    </defs>
    <g clip-path="url(#f5e2a85927)">
        <rect x="-7.5" width="90" fill="transparent" y="-3" height="36.000001" fill-opacity="1"/>
        <rect x="-7.5" width="90" fill="transparent" y="-3" height="36.000001" fill-opacity="1"/>
    </g>
    <g clip-path="url(#59cdee0b60)">
        <path fill="#ffffff" d="M 13.320312 8.546875 L 8.882812 18.902344 L 6 18.902344 L 1.574219 8.546875 L 4.738281 8.546875 L 7.550781 15.292969 L 10.421875 8.546875 Z M 13.320312 8.546875 " fill-opacity="1" fill-rule="nonzero"/>
    </g>
    <path fill="#ffffff" d="M 23.261719 10.882812 L 26.074219 10.882812 L 26.074219 18.902344 L 23.261719 18.902344 Z M 24.667969 9.996094 C 24.15625 9.996094 23.738281 9.851562 23.425781 9.566406 C 23.109375 9.28125 22.949219 8.925781 22.949219 8.5 C 22.949219 8.074219 23.109375 7.722656 23.425781 7.4375 C 23.738281 7.148438 24.15625 7.003906 24.667969 7.003906 C 25.179688 7.003906 25.59375 7.140625 25.910156 7.410156 C 26.226562 7.683594 26.382812 8.03125 26.382812 8.453125 C 26.382812 8.898438 26.226562 9.269531 25.910156 9.558594 C 25.59375 9.851562 25.179688 9.996094 24.667969 9.996094 Z M 24.667969 9.996094 " fill-opacity="1" fill-rule="nonzero"/>
    <path fill="#ffffff" d="M 31.074219 19.035156 C 30.1875 19.035156 29.394531 18.859375 28.691406 18.5 C 27.992188 18.144531 27.445312 17.652344 27.054688 17.023438 C 26.667969 16.394531 26.472656 15.675781 26.472656 14.878906 C 26.472656 14.078125 26.667969 13.367188 27.054688 12.738281 C 27.445312 12.113281 27.992188 11.625 28.691406 11.273438 C 29.394531 10.925781 30.1875 10.75 31.074219 10.75 C 31.984375 10.75 32.765625 10.945312 33.425781 11.335938 C 34.085938 11.722656 34.554688 12.265625 34.832031 12.953125 L 32.65625 14.066406 C 32.289062 13.34375 31.757812 12.984375 31.058594 12.984375 C 30.554688 12.984375 30.140625 13.152344 29.808594 13.488281 C 29.480469 13.824219 29.316406 14.285156 29.316406 14.878906 C 29.316406 15.480469 29.480469 15.949219 29.808594 16.292969 C 30.140625 16.632812 30.554688 16.800781 31.058594 16.800781 C 31.757812 16.800781 32.289062 16.441406 32.65625 15.71875 L 34.832031 16.828125 C 34.554688 17.519531 34.085938 18.0625 33.425781 18.453125 C 32.765625 18.839844 31.984375 19.035156 31.074219 19.035156 Z M 31.074219 19.035156 " fill-opacity="1" fill-rule="nonzero"/>
    <path fill="#ffffff" d="M 43.175781 14.90625 C 43.175781 14.925781 43.160156 15.15625 43.128906 15.601562 L 37.300781 15.601562 C 37.421875 16.019531 37.652344 16.335938 37.988281 16.558594 C 38.328125 16.777344 38.753906 16.890625 39.269531 16.890625 C 39.652344 16.890625 39.984375 16.835938 40.265625 16.726562 C 40.550781 16.617188 40.832031 16.441406 41.117188 16.191406 L 42.601562 17.730469 C 41.820312 18.601562 40.679688 19.035156 39.179688 19.035156 C 38.242188 19.035156 37.417969 18.859375 36.710938 18.5 C 36 18.144531 35.449219 17.652344 35.058594 17.023438 C 34.671875 16.394531 34.476562 15.675781 34.476562 14.878906 C 34.476562 14.089844 34.664062 13.378906 35.042969 12.753906 C 35.425781 12.125 35.949219 11.636719 36.617188 11.28125 C 37.289062 10.925781 38.042969 10.75 38.882812 10.75 C 39.683594 10.75 40.40625 10.914062 41.058594 11.242188 C 41.710938 11.574219 42.226562 12.050781 42.605469 12.679688 C 42.984375 13.304688 43.175781 14.046875 43.175781 14.90625 Z M 38.898438 12.746094 C 38.464844 12.746094 38.101562 12.871094 37.808594 13.117188 C 37.519531 13.363281 37.335938 13.695312 37.257812 14.121094 L 40.542969 14.121094 C 40.460938 13.695312 40.277344 13.363281 39.984375 13.117188 C 39.695312 12.871094 39.332031 12.746094 38.898438 12.746094 Z M 38.898438 12.746094 " fill-opacity="1" fill-rule="nonzero"/>
    <path fill="#ffffff" d="M 53.546875 8.546875 L 53.546875 18.902344 L 50.617188 18.902344 L 50.617188 14.859375 L 46.621094 14.859375 L 46.621094 18.902344 L 43.691406 18.902344 L 43.691406 8.546875 L 46.621094 8.546875 L 46.621094 12.433594 L 50.617188 12.433594 L 50.617188 8.546875 Z M 53.546875 8.546875 " fill-opacity="1" fill-rule="nonzero"/>
    <path fill="#ffffff" d="M 63 10.882812 L 63 18.902344 L 60.320312 18.902344 L 60.320312 18.042969 C 60.023438 18.367188 59.667969 18.613281 59.253906 18.785156 C 58.839844 18.953125 58.402344 19.035156 57.9375 19.035156 C 56.902344 19.035156 56.074219 18.730469 55.457031 18.121094 C 54.84375 17.507812 54.535156 16.589844 54.535156 15.367188 L 54.535156 10.882812 L 57.347656 10.882812 L 57.347656 14.90625 C 57.347656 15.507812 57.460938 15.949219 57.683594 16.226562 C 57.914062 16.5 58.246094 16.636719 58.679688 16.636719 C 59.121094 16.636719 59.484375 16.484375 59.765625 16.171875 C 60.046875 15.859375 60.1875 15.386719 60.1875 14.742188 L 60.1875 10.882812 Z M 63 10.882812 " fill-opacity="1" fill-rule="nonzero"/>
    <path fill="#ffffff" d="M 68.929688 10.75 C 69.660156 10.75 70.320312 10.917969 70.917969 11.253906 C 71.515625 11.589844 71.988281 12.070312 72.339844 12.695312 C 72.691406 13.320312 72.867188 14.046875 72.867188 14.878906 C 72.867188 15.707031 72.691406 16.433594 72.339844 17.066406 C 71.988281 17.699219 71.515625 18.183594 70.917969 18.527344 C 70.320312 18.867188 69.660156 19.035156 68.929688 19.035156 C 67.875 19.035156 67.085938 18.722656 66.5625 18.101562 L 66.5625 18.902344 L 63.882812 18.902344 L 63.882812 7.921875 L 66.695312 7.921875 L 66.695312 11.574219 C 67.238281 11.023438 67.984375 10.75 68.929688 10.75 Z M 68.335938 16.800781 C 68.832031 16.800781 69.234375 16.632812 69.550781 16.292969 C 69.867188 15.949219 70.023438 15.480469 70.023438 14.878906 C 70.023438 14.285156 69.867188 13.824219 69.550781 13.488281 C 69.234375 13.152344 68.832031 12.984375 68.335938 12.984375 C 67.84375 12.984375 67.441406 13.152344 67.125 13.488281 C 66.808594 13.824219 66.652344 14.285156 66.652344 14.878906 C 66.652344 15.480469 66.808594 15.949219 67.125 16.292969 C 67.441406 16.632812 67.84375 16.800781 68.335938 16.800781 Z M 68.335938 16.800781 " fill-opacity="1" fill-rule="nonzero"/>
    <g clip-path="url(#36aa2e4fb0)">
        <path fill="#ffffff" d="M 16.617188 11.222656 C 16.855469 11.222656 17.046875 11.414062 17.046875 11.652344 L 17.046875 18.109375 C 17.042969 18.351562 16.859375 18.535156 16.617188 18.539062 C 16.378906 18.539062 16.1875 18.347656 16.1875 18.109375 L 16.1875 11.652344 C 16.1875 11.414062 16.378906 11.222656 16.617188 11.222656 Z M 15.316406 12.84375 C 15.554688 12.84375 15.746094 13.035156 15.746094 13.273438 L 15.746094 16.488281 C 15.746094 16.726562 15.554688 16.917969 15.316406 16.917969 C 15.082031 16.917969 14.890625 16.726562 14.890625 16.488281 L 14.890625 13.273438 C 14.890625 13.035156 15.082031 12.84375 15.316406 12.84375 Z M 19.214844 16.238281 C 18.976562 16.238281 18.785156 16.042969 18.785156 15.808594 L 18.785156 13.953125 C 18.785156 13.71875 18.976562 13.523438 19.214844 13.523438 C 19.449219 13.523438 19.640625 13.71875 19.640625 13.953125 L 19.640625 15.808594 C 19.640625 16.042969 19.449219 16.238281 19.214844 16.238281 Z M 17.917969 10.242188 C 17.679688 10.242188 17.484375 10.4375 17.484375 10.671875 L 17.484375 19.089844 C 17.484375 19.324219 17.679688 19.519531 17.917969 19.519531 C 18.152344 19.519531 18.34375 19.324219 18.34375 19.089844 L 18.34375 10.671875 C 18.34375 10.4375 18.152344 10.242188 17.917969 10.242188 Z M 20.511719 12.066406 C 20.746094 12.066406 20.941406 12.261719 20.941406 12.496094 L 20.941406 17.265625 C 20.941406 17.5 20.746094 17.695312 20.511719 17.695312 C 20.273438 17.695312 20.082031 17.5 20.082031 17.265625 L 20.082031 12.496094 C 20.082031 12.261719 20.273438 12.066406 20.511719 12.066406 Z M 12.71875 14.171875 C 12.957031 14.171875 13.148438 14.363281 13.148438 14.601562 L 13.148438 15.160156 C 13.148438 15.398438 12.957031 15.589844 12.71875 15.589844 C 12.484375 15.589844 12.292969 15.398438 12.292969 15.160156 L 12.292969 14.601562 C 12.292969 14.363281 12.484375 14.171875 12.71875 14.171875 Z M 21.8125 14.019531 C 22.046875 14.019531 22.238281 14.214844 22.238281 14.449219 L 22.238281 15.3125 C 22.238281 15.546875 22.046875 15.742188 21.8125 15.742188 C 21.574219 15.742188 21.378906 15.546875 21.378906 15.3125 L 21.378906 14.449219 C 21.378906 14.214844 21.574219 14.019531 21.8125 14.019531 Z M 14.019531 11.957031 C 14.257812 11.957031 14.449219 12.148438 14.449219 12.386719 L 14.449219 17.375 C 14.449219 17.613281 14.257812 17.804688 14.019531 17.804688 C 13.78125 17.804688 13.589844 17.613281 13.589844 17.375 L 13.589844 12.386719 C 13.589844 12.148438 13.78125 11.957031 14.019531 11.957031 Z M 14.019531 11.957031 " fill-opacity="1" fill-rule="nonzero"/>
    </g>
</svg>
