<svg width="40" height="40" viewBox="0 0 40 40" fill="none" xmlns="http://www.w3.org/2000/svg">
<mask id="mask0_1_39" style="mask-type:alpha" maskUnits="userSpaceOnUse" x="0" y="0" width="40" height="40">
<circle cx="20" cy="20" r="20" fill="#C4C4C4"/>
</mask>
<g mask="url(#mask0_1_39)">
<path d="M14.3375 26.525C15.2584 25.8208 16.2875 25.2656 17.425 24.8594C18.5625 24.4531 19.7542 24.25 21 24.25C22.2459 24.25 23.4375 24.4531 24.575 24.8594C25.7125 25.2656 26.7417 25.8208 27.6625 26.525C28.2945 25.7847 28.7865 24.9451 29.1386 24.0062C29.4906 23.0674 29.6667 22.0653 29.6667 21C29.6667 18.5986 28.8226 16.5538 27.1344 14.8656C25.4462 13.1774 23.4014 12.3333 21 12.3333C18.5986 12.3333 16.5538 13.1774 14.8656 14.8656C13.1775 16.5538 12.3334 18.5986 12.3334 21C12.3334 22.0653 12.5094 23.0674 12.8615 24.0062C13.2136 24.9451 13.7056 25.7847 14.3375 26.525ZM21 22.0833C19.9347 22.0833 19.0365 21.7177 18.3052 20.9864C17.574 20.2552 17.2084 19.3569 17.2084 18.2917C17.2084 17.2264 17.574 16.3281 18.3052 15.5969C19.0365 14.8656 19.9347 14.5 21 14.5C22.0653 14.5 22.9636 14.8656 23.6948 15.5969C24.4261 16.3281 24.7917 17.2264 24.7917 18.2917C24.7917 19.3569 24.4261 20.2552 23.6948 20.9864C22.9636 21.7177 22.0653 22.0833 21 22.0833ZM21 31.8333C19.5014 31.8333 18.0931 31.5489 16.775 30.9802C15.457 30.4114 14.3104 29.6396 13.3354 28.6646C12.3604 27.6896 11.5886 26.543 11.0198 25.225C10.4511 23.9069 10.1667 22.4986 10.1667 21C10.1667 19.5014 10.4511 18.093 11.0198 16.775C11.5886 15.4569 12.3604 14.3104 13.3354 13.3354C14.3104 12.3604 15.457 11.5885 16.775 11.0198C18.0931 10.451 19.5014 10.1667 21 10.1667C22.4986 10.1667 23.907 10.451 25.225 11.0198C26.5431 11.5885 27.6896 12.3604 28.6646 13.3354C29.6396 14.3104 30.4115 15.4569 30.9802 16.775C31.549 18.093 31.8334 19.5014 31.8334 21C31.8334 22.4986 31.549 23.9069 30.9802 25.225C30.4115 26.543 29.6396 27.6896 28.6646 28.6646C27.6896 29.6396 26.5431 30.4114 25.225 30.9802C23.907 31.5489 22.4986 31.8333 21 31.8333Z" fill="#204064"/>
</g>
</svg>
