<svg width="37" height="36" viewBox="0 0 37 36" fill="none" xmlns="http://www.w3.org/2000/svg">
<rect width="37" height="36" rx="8" fill="#204064"/>
<path d="M12.4814 17.3486C12.6919 18.7946 13.4159 20.1165 14.5211 21.0724C15.6262 22.0283 17.0386 22.5544 18.4998 22.5544M18.4998 22.5544C19.961 22.5544 21.3734 22.0283 22.4785 21.0724C23.5836 20.1165 24.3077 18.7946 24.5181 17.3486M18.4998 22.5544V25.6M18.5006 10.4C17.8096 10.4 17.1468 10.6746 16.6581 11.1632C16.1695 11.6519 15.8949 12.3147 15.8949 13.0057V16.48C15.8949 17.1711 16.1695 17.8339 16.6581 18.3225C17.1468 18.8112 17.8096 19.0857 18.5006 19.0857C19.1917 19.0857 19.8545 18.8112 20.3432 18.3225C20.8318 17.8339 21.1064 17.1711 21.1064 16.48V13.0057C21.1064 12.3147 20.8318 11.6519 20.3432 11.1632C19.8545 10.6746 19.1917 10.4 18.5006 10.4Z" stroke="white" stroke-width="2" stroke-linecap="round" stroke-linejoin="round"/>
</svg>
