<svg width="37" height="37" viewBox="0 0 37 37" fill="none" xmlns="http://www.w3.org/2000/svg">
<rect y="0.599487" width="37" height="36" rx="8" fill="#ECECEC"/>
<path d="M12.4817 17.9481C12.6921 19.3941 13.4162 20.7159 14.5213 21.6719C15.6264 22.6278 17.0388 23.1539 18.5 23.1539M18.5 23.1539C19.9612 23.1539 21.3736 22.6278 22.4787 21.6719C23.5839 20.7159 24.3079 19.3941 24.5184 17.9481M18.5 23.1539V26.1995M18.5009 10.9995C17.8098 10.9995 17.147 11.274 16.6584 11.7627C16.1697 12.2514 15.8952 12.9141 15.8952 13.6052V17.0795C15.8952 17.7706 16.1697 18.4334 16.6584 18.922C17.147 19.4107 17.8098 19.6852 18.5009 19.6852C19.192 19.6852 19.8547 19.4107 20.3434 18.922C20.8321 18.4334 21.1066 17.7706 21.1066 17.0795V13.6052C21.1066 12.9141 20.8321 12.2514 20.3434 11.7627C19.8547 11.274 19.192 10.9995 18.5009 10.9995Z" stroke="black" stroke-width="2" stroke-linecap="round" stroke-linejoin="round"/>
</svg>
